# xmcd
#
# Track frame offsets:
#	150
#	14810
#	31796
#	47473
#	65435
#	81025
#	97560
#	115513
#	134454
#	148581
#	164693
#	176859
#	193172
#	207630
#	224216
#	240638
#	254018
#	269759
#	283758
#	300305
#	315719
#
# Disc length: 4440 seconds
#
# Revision: 20
# Processed by: cddbd v1.5.2PL0 Copyright (c) Steve Scherf et al.
# Submitted via: audiograbber 1.83.01
#
DISCID=43115615
DTITLE=Bravo Hits - Bravo Hits 67 - CD2
DYEAR=2009
DGENRE=Pop
TTITLE0=David Guetta feat. Akon - Sexy Bitch
TTITLE1=Rammstein - Pussy
TTITLE2=Lady Gaga - Paparazzi
TTITLE3=Pitbull - Hotel Room Service
TTITLE4=Nelly Furtado - Manos Al Aire
TTITLE5=Culcha Candela - Schöne neue Welt
TTITLE6=Bushido produziert Sonny Black and Frank White - Eine Chance - Zu Gangsta
TTITLE7=The Pussycat Dolls - Hush Hush, Hush Hush
TTITLE8=Miss Platnum - She Moved In
TTITLE9=Justin Bieber - One Time
TTITLE10=Miranda Cosgrove feat. Drake Bell - Leave It All To Me
TTITLE11=No Angels - One Life
TTITLE12=Kate Ryan - Babacar
TTITLE13=Dizzee Rascal - Holiday
TTITLE14=Calvin Harris - Ready For The Weekend
TTITLE15=Space Cowboy feat. Chelsea Korka - Falling Down
TTITLE16=Magvay and Novskyy feat. Lize - Graf Cox (Sexy Girl)
TTITLE17=Tobias Schulz - Guten Morgen Sonnenschein
TTITLE18=Scotty - He's A Pirate
TTITLE19=Paul van Dyk feat. Johnny McDaid - Home
TTITLE20=Scooter - J'adore Hardcore
EXTD=
EXTT0=
EXTT1=
EXTT2=
EXTT3=
EXTT4=
EXTT5=
EXTT6=
EXTT7=
EXTT8=
EXTT9=
EXTT10=
EXTT11=
EXTT12=
EXTT13=
EXTT14=
EXTT15=
EXTT16=
EXTT17=
EXTT18=
EXTT19=
EXTT20=
PLAYORDER=
